<svg width="331" height="331" viewBox="0 0 331 331" fill="none" xmlns="http://www.w3.org/2000/svg">
<path fill-rule="evenodd" clip-rule="evenodd" d="M331 10C331 4.47716 326.523 1.50631e-05 321 1.48217e-05L280 1.30295e-05C241.34 1.52588e-05 210 31.3401 210 70C210 71.9763 210.082 73.9335 210.242 75.8683C210.248 75.9392 210.192 76 210.121 76V76C210.054 76 210 76.0544 210 76.1214V157.859V169C210 185.569 196.569 199 180 199C163.431 199 150 185.569 150 169V157.859C150 157.859 150 157.859 150 157.859V157.859C150 157.859 150 157.859 150 157.859C149.924 116.503 116.374 83 75 83C33.9136 83 0.543553 116.038 0.00657301 156.997C0.00654943 156.999 0.00508485 157 0.00328651 157V157C0.00147142 157 0 157.001 0 157.003V158V321C0 326.523 4.47715 331 10 331H30C35.5228 331 40 326.523 40 321V168.374V157V156.007C40 156.003 40.0032 156 40.0071 156V156C40.0109 156 40.0141 155.997 40.0142 155.993C40.5471 137.129 56.0068 122 75 122C93.9932 122 109.453 137.129 109.986 155.993C109.986 155.997 109.989 156 109.993 156V156C109.997 156 110 156.003 110 156.007V157V168.364C110 168.37 110.004 168.375 110.01 168.377V168.377C110.015 168.379 110.019 168.385 110.019 168.391C110.006 168.913 110 169.449 110 170C110 208.66 141.34 240 180 240C217.986 240 248.906 209.742 249.972 172.014C249.972 172.006 249.978 172 249.986 172V172C249.994 172 250 171.994 250 171.986V170V133.264V69V65.141C250 65.0631 250.063 65 250.141 65V65C250.212 65 250.271 64.9473 250.281 64.8773C252.29 50.2595 264.83 39 280 39H321C326.523 39 331 34.5229 331 29V22.0518V10Z" fill="black"/>
</svg>
