<svg width="331" height="331" viewBox="0 0 331 331" fill="none" xmlns="http://www.w3.org/2000/svg">
<path fill-rule="evenodd" clip-rule="evenodd" d="M98 10C98 4.47715 93.5228 0 88 0H58C52.4772 0 48 4.47715 48 10V41C48 46.5228 43.5228 51 38 51H10C4.47715 51 0 55.4771 0 61V321C0 326.523 4.47715 331 10 331H39C44.5228 331 49 326.523 49 321V62C49 56.4772 53.4772 52 59 52H87C92.5228 52 97 56.4772 97 62V140C97 145.523 101.477 150 107 150H133C138.523 150 143 154.477 143 160V185C143 190.523 147.477 195 153 195H229C234.523 195 239 190.523 239 185V159C239 153.477 243.477 149 249 149H276C281.523 149 286 144.523 286 139V62C286 56.4772 290.477 52 296 52H321C326.523 52 331 47.5228 331 42V10C331 4.47715 326.523 0 321 0H292C286.477 0 282 4.47715 282 10V39C282 44.5228 277.523 49 272 49H247C241.477 49 237 53.4772 237 59V133C237 138.523 232.523 143 227 143H156C150.477 143 146 138.523 146 133V60C146 54.4772 141.523 50 136 50H108C102.477 50 98 45.5228 98 40V10Z" fill="black"/>
</svg>
