<svg width="331" height="331" viewBox="0 0 331 331" fill="none" xmlns="http://www.w3.org/2000/svg">
<path fill-rule="evenodd" clip-rule="evenodd" d="M321 1.79217e-06C326.523 2.03358e-06 331 4.47715 331 10V22.0518V29C331 34.5228 326.523 39 321 39H280C264.83 39 252.29 50.2595 250.281 64.8773C250.271 64.9473 250.212 65 250.141 65C250.063 65 250 65.0631 250 65.1409V69V133.264V170V171.986C250 171.994 249.994 172 249.986 172C249.978 172 249.972 172.006 249.972 172.014C248.906 209.742 217.986 240 180 240C141.34 240 110 208.66 110 170C110 169.449 110.006 168.913 110.019 168.391C110.019 168.385 110.015 168.379 110.009 168.377C110.004 168.375 110 168.37 110 168.364V157V156.007C110 156.003 109.997 156 109.993 156C109.989 156 109.986 155.997 109.986 155.993C109.453 137.129 93.9932 122 75 122C56.0068 122 40.5471 137.129 40.0142 155.993C40.0141 155.997 40.0109 156 40.0071 156C40.0032 156 40 156.003 40 156.007V157V168.374V321C40 326.523 35.5228 331 30 331H10C4.47715 331 0 326.523 0 321V158V157.003C0 157.001 0.00147142 157 0.00328651 157C0.00508485 157 0.00654943 156.999 0.00657301 156.997C0.543553 116.038 33.9136 83 75 83C116.374 83 149.924 116.503 150 157.859L150 157.859V169C150 185.569 163.431 199 180 199C196.569 199 210 185.569 210 169V157.859V76.1214C210 76.0543 210.054 76 210.121 76C210.192 76 210.248 75.9392 210.242 75.8683C210.082 73.9335 210 71.9763 210 70C210 31.3401 241.34 2.22928e-06 280 0L321 1.79217e-06ZM331 331V291H257V331H331Z" fill="black"/>
<path fill-rule="evenodd" clip-rule="evenodd" d="M321 1.79217e-06C326.523 2.03358e-06 331 4.47715 331 10V22.0518V29C331 34.5228 326.523 39 321 39H280C264.83 39 252.29 50.2595 250.281 64.8773C250.271 64.9473 250.212 65 250.141 65C250.063 65 250 65.0631 250 65.1409V69V133.264V170V171.986C250 171.994 249.994 172 249.986 172C249.978 172 249.972 172.006 249.972 172.014C248.906 209.742 217.986 240 180 240C141.34 240 110 208.66 110 170C110 169.449 110.006 168.913 110.019 168.391C110.019 168.385 110.015 168.379 110.009 168.377C110.004 168.375 110 168.37 110 168.364V157V156.007C110 156.003 109.997 156 109.993 156C109.989 156 109.986 155.997 109.986 155.993C109.453 137.129 93.9932 122 75 122C56.0068 122 40.5471 137.129 40.0142 155.993C40.0141 155.997 40.0109 156 40.0071 156C40.0032 156 40 156.003 40 156.007V157V168.374V321C40 326.523 35.5228 331 30 331H10C4.47715 331 0 326.523 0 321V158V157.003C0 157.001 0.00147142 157 0.00328651 157C0.00508485 157 0.00654943 156.999 0.00657301 156.997C0.543553 116.038 33.9136 83 75 83C116.374 83 149.924 116.503 150 157.859L150 157.859V169C150 185.569 163.431 199 180 199C196.569 199 210 185.569 210 169V157.859V76.1214C210 76.0543 210.054 76 210.121 76C210.192 76 210.248 75.9392 210.242 75.8683C210.082 73.9335 210 71.9763 210 70C210 31.3401 241.34 2.22928e-06 280 0L321 1.79217e-06ZM331 331V291H257V331H331Z" fill="black"/>
</svg>
