<svg width="331" height="331" viewBox="0 0 331 331" fill="none" xmlns="http://www.w3.org/2000/svg">
<path fill-rule="evenodd" clip-rule="evenodd" d="M331 10C331 4.47715 326.523 0 321 0H280C241.34 0 210 31.3401 210 70C210 71.9763 210.082 73.9335 210.242 75.8683C210.248 75.9392 210.192 76 210.121 76V76C210.054 76 210 76.0544 210 76.1214V106.736V169C210 185.569 196.569 199 180 199C163.431 199 150 185.569 150 169V106.736V77.0129C150 77.0058 149.994 77 149.987 77V77C149.98 77 149.974 76.994 149.974 76.9868C149.991 76.3266 150 75.6643 150 75C150 33.5786 116.421 0 75 0C33.9136 0 0.543553 33.0378 0.00657301 73.9967C0.00654943 73.9985 0.00508485 74 0.00328651 74V74C0.00147142 74 0 74.0015 0 74.0033V75V321C0 326.523 4.47715 331 10 331H30C35.5228 331 40 326.523 40 321V291V141.35V74C40 54.67 55.67 39 75 39C94.33 39 110 54.67 110 74V141.35V167.986C110 167.994 110.006 168 110.014 168V168C110.022 168 110.028 168.006 110.028 168.014C110.009 168.674 110 169.336 110 170C110 208.66 141.34 240 180 240C217.986 240 248.906 209.742 249.972 172.014C249.972 172.006 249.978 172 249.986 172V172C249.994 172 250 171.994 250 171.986V170V133.264V69V65.1409C250 65.0631 250.063 65 250.141 65V65C250.212 65 250.271 64.9472 250.281 64.8773C252.29 50.2595 264.83 39 280 39H321C326.523 39 331 34.5228 331 29V22.0518V10Z" fill="black"/>
</svg>
