<svg width="331" height="331" viewBox="0 0 331 331" fill="none" xmlns="http://www.w3.org/2000/svg">
<path fill-rule="evenodd" clip-rule="evenodd" d="M331 10C331 4.47715 326.523 0 321 0H292C286.477 0 282 4.47715 282 10V39C282 44.5228 277.523 49 272 49H247C241.477 49 237 53.4772 237 59V133C237 138.523 232.523 143 227 143H157C151.477 143 147 138.523 147 133V101C147 95.4772 142.523 91 137 91H58C52.4772 91 48 95.4772 48 101V128C48 133.523 43.5228 138 38 138H10C4.47715 138 0 142.477 0 148V321C0 326.523 4.47715 331 10 331H39C44.5228 331 49 326.523 49 321V153C49 147.477 53.4772 143 59 143H133C138.523 143 143 147.477 143 153V185C143 190.523 147.477 195 153 195H229C234.523 195 239 190.523 239 185V159C239 153.477 243.477 149 249 149H276C281.523 149 286 144.523 286 139V62C286 56.4772 290.477 52 296 52H321C326.523 52 331 47.5228 331 42V10Z" fill="black"/>
</svg>
