<svg width="309" height="309" viewBox="0 0 309 309" fill="none" xmlns="http://www.w3.org/2000/svg">
<path fill-rule="evenodd" clip-rule="evenodd" d="M299 0C304.523 0 309 4.47715 309 10V20.5861V26.4079C309 31.9307 304.523 36.4078 299 36.4078L261.39 36.4079C247.228 36.4079 235.522 46.919 233.646 60.5651C233.637 60.6305 233.581 60.6797 233.515 60.6797C233.443 60.6797 233.384 60.7386 233.384 60.8113V64.4139L233.384 124.406L233.384 158.701L233.384 160.555C233.384 160.562 233.378 160.568 233.37 160.568C233.366 160.568 233.362 160.57 233.36 160.573C233.358 160.576 233.357 160.578 233.357 160.581C232.362 195.802 203.498 224.048 168.036 224.048C131.961 224.048 102.713 194.816 102.689 158.746V158.656C102.689 158.158 102.695 157.672 102.707 157.199C102.707 157.193 102.703 157.188 102.698 157.186C102.692 157.184 102.689 157.179 102.689 157.173V146.565V145.638C102.689 145.634 102.686 145.631 102.682 145.631C102.679 145.631 102.676 145.629 102.676 145.625C102.178 128.014 87.7459 113.891 70.0151 113.891C52.2843 113.891 37.8521 128.014 37.3547 145.625C37.3546 145.629 37.3516 145.631 37.348 145.631C37.3444 145.631 37.3414 145.634 37.3414 145.638V146.565V157.001C37.3414 157.11 37.2732 157.208 37.1707 157.245C37.0682 157.282 37 157.38 37 157.489V175C37 180.523 32.5228 185 27 185H10C4.47715 185 0 180.523 0 175V147.499V147.001C0 147 0.000390366 147 0.000871906 147C0.00135107 147 0.00174048 147 0.00174383 146.999C0.270256 108.561 31.5134 77.4834 70.0151 77.4834C108.64 77.4834 139.959 108.759 140.03 147.367L140.03 147.367L140.03 147.367V157.767C140.03 173.235 152.569 185.773 168.036 185.773C183.504 185.773 196.042 173.235 196.042 157.767L196.042 71.062C196.042 70.9994 196.093 70.9486 196.156 70.9486C196.222 70.9486 196.274 70.8919 196.269 70.8257C196.121 69.0489 196.045 67.252 196.042 65.4377V65.2571C196.091 29.2083 225.329 2.07938e-06 261.39 0H299ZM102 290.5C102 280.283 93.7173 272 83.5 272H18.5C8.28273 272 0 280.283 0 290.5C0 300.717 8.28273 309 18.5 309H83.5C93.7173 309 102 300.717 102 290.5Z" fill="black"/>
<path fill-rule="evenodd" clip-rule="evenodd" d="M299 0C304.523 0 309 4.47715 309 10V20.5861V26.4079C309 31.9307 304.523 36.4078 299 36.4078L261.39 36.4079C247.228 36.4079 235.522 46.919 233.646 60.5651C233.637 60.6305 233.581 60.6797 233.515 60.6797C233.443 60.6797 233.384 60.7386 233.384 60.8113V64.4139L233.384 124.406L233.384 158.701L233.384 160.555C233.384 160.562 233.378 160.568 233.37 160.568C233.366 160.568 233.362 160.57 233.36 160.573C233.358 160.576 233.357 160.578 233.357 160.581C232.362 195.802 203.498 224.048 168.036 224.048C131.961 224.048 102.713 194.816 102.689 158.746V158.656C102.689 158.158 102.695 157.672 102.707 157.199C102.707 157.193 102.703 157.188 102.698 157.186C102.692 157.184 102.689 157.179 102.689 157.173V146.565V145.638C102.689 145.634 102.686 145.631 102.682 145.631C102.679 145.631 102.676 145.629 102.676 145.625C102.178 128.014 87.7459 113.891 70.0151 113.891C52.2843 113.891 37.8521 128.014 37.3547 145.625C37.3546 145.629 37.3516 145.631 37.348 145.631C37.3444 145.631 37.3414 145.634 37.3414 145.638V146.565V157.001C37.3414 157.11 37.2732 157.208 37.1707 157.245C37.0682 157.282 37 157.38 37 157.489V175C37 180.523 32.5228 185 27 185H10C4.47715 185 0 180.523 0 175V147.499V147.001C0 147 0.000390366 147 0.000871906 147C0.00135107 147 0.00174048 147 0.00174383 146.999C0.270256 108.561 31.5134 77.4834 70.0151 77.4834C108.64 77.4834 139.959 108.759 140.03 147.367L140.03 147.367L140.03 147.367V157.767C140.03 173.235 152.569 185.773 168.036 185.773C183.504 185.773 196.042 173.235 196.042 157.767L196.042 71.062C196.042 70.9994 196.093 70.9486 196.156 70.9486C196.222 70.9486 196.274 70.8919 196.269 70.8257C196.121 69.0489 196.045 67.252 196.042 65.4377V65.2571C196.091 29.2083 225.329 2.07938e-06 261.39 0H299ZM102 290.5C102 280.283 93.7173 272 83.5 272H18.5C8.28273 272 0 280.283 0 290.5C0 300.717 8.28273 309 18.5 309H83.5C93.7173 309 102 300.717 102 290.5Z" fill="black"/>
</svg>
