<svg width="331" height="331" viewBox="0 0 331 331" fill="none" xmlns="http://www.w3.org/2000/svg">
<path fill-rule="evenodd" clip-rule="evenodd" d="M331 10C331 4.47715 326.523 0 321 0H280C241.34 0 210 31.3401 210 70C210 71.9763 210.082 73.9335 210.242 75.8683C210.248 75.9392 210.192 76 210.121 76V76C210.054 76 210 76.0544 210 76.1214V106.736V169C210 185.569 196.569 199 180 199C163.431 199 150 185.569 150 169V106.736V70V64.1321C150 64.0592 149.941 64 149.868 64V64C149.799 64 149.742 63.9469 149.736 63.8785C146.635 28.0852 116.597 0 80 0H10C4.47715 0 0 4.47715 0 10V40V292V321C0 326.523 4.47715 331 10 331H40H321C326.523 331 331 326.523 331 321V302C331 296.477 326.523 292 321 292H41C40.4477 292 40 291.552 40 291V291V127.453V65V49C40 43.4772 44.4772 39 50 39H80C95.1699 39 107.71 50.2595 109.719 64.8773C109.729 64.9472 109.788 65 109.859 65V65C109.937 65 110 65.0631 110 65.1409V69V133.264V170C110 208.66 141.34 240 180 240C217.986 240 248.906 209.742 249.972 172.014C249.972 172.006 249.978 172 249.986 172V172C249.994 172 250 171.994 250 171.986V170V133.264V69V65.1409C250 65.0631 250.063 65 250.141 65V65C250.212 65 250.271 64.9472 250.281 64.8773C252.29 50.2595 264.83 39 280 39H321C326.523 39 331 34.5228 331 29V22.0518V10Z" fill="black"/>
</svg>
