<?xml version="1.0" encoding="UTF-8"?>
<svg xmlns="http://www.w3.org/2000/svg" xmlns:xlink="http://www.w3.org/1999/xlink" width="60px" height="189px" viewBox="0 0 60 189" version="1.1">
<g id="surface1">
<rect x="0" y="0" width="60" height="189" style="fill:rgb(100%,100%,100%);fill-opacity:1;stroke:none;"/>
<path style=" stroke:none;fill-rule:nonzero;fill:rgb(100%,100%,100%);fill-opacity:1;" d="M 30 0 C 46.570312 0 60 13.425781 60 29.988281 L 60 67.441406 C 60 84.003906 46.570312 97.433594 30 97.433594 C 13.429688 97.433594 0 84.003906 0 67.441406 L 0 29.988281 C 0 13.425781 13.429688 0 30 0 Z M 30 0 "/>
<path style=" stroke:none;fill-rule:nonzero;fill:rgb(0%,0%,0%);fill-opacity:1;" d="M 30 29.988281 C 46.570312 29.988281 60 43.417969 60 59.980469 L 60 97.433594 C 60 113.996094 46.570312 127.421875 30 127.421875 C 13.429688 127.421875 0 113.996094 0 97.433594 L 0 59.980469 C 0 43.417969 13.429688 29.988281 30 29.988281 Z M 30 29.988281 "/>
<path style=" stroke:none;fill-rule:nonzero;fill:rgb(100%,100%,100%);fill-opacity:1;" d="M 30 59.980469 C 46.570312 59.980469 60 73.40625 60 89.96875 L 60 127.421875 C 60 143.984375 46.570312 157.410156 30 157.410156 C 13.429688 157.410156 0 143.984375 0 127.421875 L 0 89.96875 C 0 73.40625 13.429688 59.980469 30 59.980469 Z M 30 59.980469 "/>
<path style=" stroke:none;fill-rule:nonzero;fill:rgb(0%,0%,0%);fill-opacity:1;" d="M 30 89.96875 C 46.570312 89.96875 60 103.394531 60 119.957031 L 60 157.410156 C 60 173.972656 46.570312 187.402344 30 187.402344 C 13.429688 187.402344 0 173.972656 0 157.410156 L 0 119.957031 C 0 103.394531 13.429688 89.96875 30 89.96875 Z M 30 89.96875 "/>
<path style=" stroke:none;fill-rule:nonzero;fill:rgb(100%,100%,100%);fill-opacity:1;" d="M 42 104.894531 C 42 111.519531 36.628906 116.890625 30 116.890625 C 23.371094 116.890625 18 111.519531 18 104.894531 C 18 98.269531 23.371094 92.902344 30 92.902344 C 36.628906 92.902344 42 98.269531 42 104.894531 Z M 42 104.894531 "/>
<path style=" stroke:none;fill-rule:nonzero;fill:rgb(0%,0%,0%);fill-opacity:1;" d="M 35.894531 104.894531 C 35.894531 108.148438 33.253906 110.785156 30 110.785156 C 26.746094 110.785156 24.105469 108.148438 24.105469 104.894531 C 24.105469 101.644531 26.746094 99.003906 30 99.003906 C 33.253906 99.003906 35.894531 101.644531 35.894531 104.894531 Z M 35.894531 104.894531 "/>
<path style=" stroke:none;fill-rule:nonzero;fill:rgb(0%,0%,0%);fill-opacity:1;" d="M 42 74.90625 C 42 81.53125 36.628906 86.902344 30 86.902344 C 23.371094 86.902344 18 81.53125 18 74.90625 C 18 68.28125 23.371094 62.910156 30 62.910156 C 36.628906 62.910156 42 68.28125 42 74.90625 Z M 42 74.90625 "/>
<path style=" stroke:none;fill-rule:nonzero;fill:rgb(100%,100%,100%);fill-opacity:1;" d="M 35.894531 74.90625 C 35.894531 78.160156 33.253906 80.796875 30 80.796875 C 26.746094 80.796875 24.105469 78.160156 24.105469 74.90625 C 24.105469 71.652344 26.746094 69.015625 30 69.015625 C 33.253906 69.015625 35.894531 71.652344 35.894531 74.90625 Z M 35.894531 74.90625 "/>
<path style=" stroke:none;fill-rule:nonzero;fill:rgb(100%,100%,100%);fill-opacity:1;" d="M 42 44.917969 C 42 51.542969 36.628906 56.914062 30 56.914062 C 23.371094 56.914062 18 51.542969 18 44.917969 C 18 38.292969 23.371094 32.921875 30 32.921875 C 36.628906 32.921875 42 38.292969 42 44.917969 Z M 42 44.917969 "/>
<path style=" stroke:none;fill-rule:nonzero;fill:rgb(0%,0%,0%);fill-opacity:1;" d="M 35.867188 44.917969 C 35.867188 48.15625 33.238281 50.78125 30 50.78125 C 26.761719 50.78125 24.132812 48.15625 24.132812 44.917969 C 24.132812 41.679688 26.761719 39.054688 30 39.054688 C 33.238281 39.054688 35.867188 41.679688 35.867188 44.917969 Z M 35.867188 44.917969 "/>
<path style=" stroke:none;fill-rule:nonzero;fill:rgb(0%,0%,0%);fill-opacity:1;" d="M 42 14.929688 C 42 21.554688 36.628906 26.925781 30 26.925781 C 23.371094 26.925781 18 21.554688 18 14.929688 C 18 8.304688 23.371094 2.933594 30 2.933594 C 36.628906 2.933594 42 8.304688 42 14.929688 Z M 42 14.929688 "/>
<path style=" stroke:none;fill-rule:nonzero;fill:rgb(100%,100%,100%);fill-opacity:1;" d="M 35.894531 14.929688 C 35.894531 18.179688 33.253906 20.820312 30 20.820312 C 26.746094 20.820312 24.105469 18.179688 24.105469 14.929688 C 24.105469 11.675781 26.746094 9.039062 30 9.039062 C 33.253906 9.039062 35.894531 11.675781 35.894531 14.929688 Z M 35.894531 14.929688 "/>
</g>
</svg>
