<svg width="93" height="93" viewBox="0 0 93 93" fill="none" xmlns="http://www.w3.org/2000/svg">
<path d="M46.5 0L52.578 15.9436L64.2948 3.5396L63.8088 20.5956L79.3805 13.6195L72.4044 29.1912L89.4604 28.7052L77.0564 40.422L93 46.5L77.0564 52.578L89.4604 64.2948L72.4044 63.8088L79.3805 79.3805L63.8088 72.4044L64.2948 89.4604L52.578 77.0564L46.5 93L40.422 77.0564L28.7052 89.4604L29.1912 72.4044L13.6195 79.3805L20.5956 63.8088L3.5396 64.2948L15.9436 52.578L0 46.5L15.9436 40.422L3.5396 28.7052L20.5956 29.1912L13.6195 13.6195L29.1912 20.5956L28.7052 3.5396L40.422 15.9436L46.5 0Z" fill="white"/>
</svg>
